<svg width="11" height="11" viewBox="0 0 11 11" fill="none" xmlns="http://www.w3.org/2000/svg">
<path d="M5.5 0.296906C4.5111 0.296906 3.5444 0.59015 2.72215 1.13956C1.8999 1.68896 1.25904 2.46986 0.880605 3.38349C0.502166 4.29712 0.40315 5.30245 0.596076 6.27236C0.789002 7.24226 1.26521 8.13317 1.96447 8.83244C2.66373 9.5317 3.55465 10.0079 4.52455 10.2008C5.49445 10.3938 6.49979 10.2947 7.41342 9.9163C8.32705 9.53786 9.10794 8.897 9.65735 8.07475C10.2068 7.25251 10.5 6.28581 10.5 5.2969C10.5 4.6403 10.3707 3.99011 10.1194 3.38349C9.86812 2.77686 9.49983 2.22566 9.03553 1.76137C8.57124 1.29708 8.02005 0.928781 7.41342 0.677508C6.80679 0.426234 6.15661 0.296906 5.5 0.296906ZM5.5 9.2969C4.70888 9.2969 3.93552 9.06231 3.27772 8.62278C2.61992 8.18326 2.10723 7.55854 1.80448 6.82764C1.50173 6.09673 1.42252 5.29247 1.57686 4.51654C1.7312 3.74062 2.11216 3.02789 2.67157 2.46848C3.23098 1.90907 3.94372 1.52811 4.71964 1.37376C5.49556 1.21942 6.29983 1.29864 7.03074 1.60139C7.76164 1.90414 8.38635 2.41683 8.82588 3.07462C9.2654 3.73242 9.5 4.50578 9.5 5.2969C9.5 6.35777 9.07857 7.37519 8.32843 8.12533C7.57828 8.87548 6.56087 9.2969 5.5 9.2969ZM5.5 2.2969C5.36739 2.2969 5.24022 2.34958 5.14645 2.44335C5.05268 2.53712 5 2.6643 5 2.7969V5.0069L3.95 5.6119C3.85368 5.66649 3.7782 5.75149 3.73539 5.85359C3.69259 5.95569 3.68488 6.06912 3.71347 6.17607C3.74207 6.28302 3.80536 6.37746 3.89341 6.44457C3.98146 6.51169 4.08929 6.54768 4.2 6.5469C4.28759 6.54751 4.3738 6.52509 4.45 6.4819L5.75 5.7319L5.795 5.6869L5.875 5.6219C5.89455 5.59715 5.91132 5.57032 5.925 5.5419C5.9413 5.51506 5.9547 5.48657 5.965 5.4569C5.9786 5.42511 5.98704 5.39136 5.99 5.3569L6 5.2969V2.7969C6 2.6643 5.94732 2.53712 5.85355 2.44335C5.75979 2.34958 5.63261 2.2969 5.5 2.2969Z" fill="#F5F5F5"/>
</svg>
