<svg width="15" height="21" viewBox="0 0 15 21" fill="none" xmlns="http://www.w3.org/2000/svg">
<path d="M13.4865 13.4425C13.4865 15.4743 12.8497 17.0673 11.766 18.151C10.6823 19.2346 9.08936 19.8715 7.05752 19.8715C5.02569 19.8715 3.43273 19.2346 2.34904 18.151C1.26536 17.0673 0.628522 15.4743 0.628522 13.4425C0.628522 11.3056 1.80844 8.70401 3.25929 6.34055C4.67469 4.03484 6.2798 2.06267 7.05776 1.15034C7.83556 2.06275 9.44051 4.03489 10.8558 6.34054C12.3066 8.70401 13.4865 11.3056 13.4865 13.4425Z" stroke="#F5F5F5" stroke-opacity="0.5" stroke-width="1.25704" stroke-miterlimit="10"/>
<path d="M11.0065 14.0651C11.0065 15.0016 10.6344 15.8999 9.97215 16.5621C9.30989 17.2244 8.41167 17.5964 7.4751 17.5964" stroke="#F5F5F5" stroke-opacity="0.5" stroke-width="1.25704" stroke-linecap="round" stroke-linejoin="round"/>
</svg>
