<svg width="22" height="23" viewBox="0 0 22 23" fill="none" xmlns="http://www.w3.org/2000/svg">
<path d="M19.4137 14.6058C19.3656 14.4327 19.4714 14.1923 19.5724 14.0193C19.6032 13.9678 19.6369 13.918 19.6733 13.8702C20.5369 12.587 20.9988 11.0756 21.0002 9.52887C21.0147 5.09616 17.2743 1.5 12.6493 1.5C8.61559 1.5 5.2502 4.2452 4.46173 7.88944C4.34378 8.42957 4.28414 8.98081 4.28385 9.53368C4.28385 13.9712 7.88001 17.6635 12.505 17.6635C13.2406 17.6635 14.231 17.4423 14.7743 17.2933C15.3175 17.1443 15.856 16.9472 15.9954 16.8943C16.1383 16.8404 16.2898 16.8127 16.4425 16.8125C16.6092 16.8119 16.7743 16.8446 16.9281 16.9087L19.6541 17.875C19.7138 17.9003 19.777 17.9165 19.8416 17.9231C19.9436 17.9231 20.0414 17.8826 20.1135 17.8105C20.1857 17.7383 20.2262 17.6405 20.2262 17.5385C20.2228 17.4945 20.2148 17.451 20.2022 17.4087L19.4137 14.6058Z" stroke="#F5F5F5" stroke-opacity="0.5" stroke-width="1.2331" stroke-miterlimit="10" stroke-linecap="round"/>
<path d="M1.88753 10.3461C1.25697 11.4789 0.951934 12.764 1.00615 14.0593C1.06037 15.3547 1.47172 16.6098 2.19474 17.686C2.3058 17.8538 2.3683 17.9836 2.34907 18.0706C2.32984 18.1576 1.77551 21.0451 1.77551 21.0451C1.76218 21.1127 1.76724 21.1826 1.79016 21.2476C1.81307 21.3125 1.85301 21.3701 1.9058 21.4144C1.97624 21.4705 2.06382 21.5007 2.15388 21.4999C2.202 21.5001 2.24964 21.4903 2.29378 21.4711L4.99619 20.4134C5.18219 20.3401 5.38967 20.3435 5.57312 20.423C6.4837 20.7778 7.49043 20.9999 8.49765 20.9999C9.84922 21.0014 11.1771 20.6449 12.3462 19.9668" stroke="#F5F5F5" stroke-opacity="0.5" stroke-width="1.2331" stroke-miterlimit="10" stroke-linecap="round"/>
</svg>
